<svg width="122" height="32" viewBox="0 0 122 32" fill="none" xmlns="http://www.w3.org/2000/svg">
<path fill-rule="evenodd" clip-rule="evenodd" d="M1.0174 22.8911C0.984812 17.8691 1.05 12.3582 1.0174 7.33682C1.21296 4.46728 2.7781 0.42441 7.47352 0.195555L25.4737 0C25.6041 5.70649 24.0715 7.59755 20.9738 7.92348C17.0932 7.92348 14.2889 8.02125 10.409 8.02125C5.25582 7.92348 3.42995 15.3588 1.0174 22.8911Z" fill="white"/>
<path fill-rule="evenodd" clip-rule="evenodd" d="M0.723633 28.7614L5.51683 15.9455C7.04938 11.87 8.77748 10.3368 12.267 10.1738H23.6148C23.1259 15.0166 21.7882 17.8536 18.332 18.2936H13.2455L10.4085 26.3141C9.56041 27.9126 8.35449 28.7274 6.98419 28.7607L0.723633 28.7614Z" fill="white"/>
<path fill-rule="evenodd" clip-rule="evenodd" d="M55.7261 31.9991C55.5546 31.9991 55.3832 31.9559 55.2117 31.9134C55.1685 31.8277 55.0828 31.7419 54.997 31.6562C54.997 30.971 54.997 30.2859 54.9545 29.6C54.997 29.5568 55.0402 29.5143 55.0828 29.4286C55.7254 29.3442 56.368 29.2585 57.0107 29.1295C57.0964 29.0438 57.1822 28.9149 57.2679 28.7866C57.3111 28.7009 57.3536 28.5719 57.3968 28.4437C57.3968 26.3443 57.3968 24.2449 57.4401 22.1044C57.4401 20.6469 57.4401 19.1902 57.3968 17.6909C57.3968 17.219 57.3968 16.7478 57.4401 16.2341C57.5055 16.1165 57.577 16.0023 57.654 15.8919C57.9963 15.8487 58.3824 15.8062 58.7679 15.763C59.6245 15.763 60.4818 15.763 61.3384 15.7197C61.5949 15.7197 61.8954 15.7197 62.1951 15.763C62.2383 15.8062 62.324 15.8487 62.4098 15.9344C62.453 16.1059 62.4955 16.2767 62.5373 16.4481C62.5373 18.9762 62.5373 21.5461 62.5805 24.1173C62.5805 25.5302 62.5805 26.9876 62.5373 28.443C62.4955 28.7859 62.453 29.1296 62.3672 29.4711L62.11 30.2434C62.0243 30.3723 61.9386 30.4992 61.8096 30.6713C61.4674 30.9718 61.1245 31.2722 60.739 31.6137C60.3536 31.7426 59.9249 31.8709 59.4969 31.9998L55.7261 31.9991ZM48.3573 28.7859C47.3292 28.657 46.3011 28.5287 45.2723 28.3572C45.1866 28.3154 45.0583 28.2729 44.9301 28.1872C44.8444 28.1872 44.7586 28.1872 44.6304 28.144C44.3307 27.9725 43.9877 27.7578 43.6448 27.5431C43.4308 27.2859 43.2161 27.0294 43.0022 26.7297C42.9164 26.6008 42.8307 26.4293 42.745 26.2593C42.7025 26.0878 42.6592 25.8731 42.6167 25.6584C42.6167 22.5309 42.6167 19.3602 42.6592 16.1902L42.9164 16.062C43.5591 16.062 44.2442 16.0188 44.9301 15.9762H46.9863L47.3717 16.1052C47.4149 16.6196 47.4575 17.1333 47.5432 17.6902C47.5432 19.6606 47.5432 21.6311 47.5857 23.6022C47.5857 23.9027 47.6289 24.2017 47.6714 24.5446C47.7147 24.6735 47.7572 24.8018 47.7997 24.9733C47.8429 25.0165 47.8854 25.1022 47.9711 25.188C48.1426 25.2298 48.3566 25.3155 48.5706 25.4012C48.6138 25.4012 48.6563 25.358 48.742 25.3155C48.7853 25.3155 48.8278 25.3587 48.9135 25.4012C49.1282 25.3155 49.3847 25.2298 49.6419 25.1454C49.7276 24.974 49.8133 24.7593 49.9416 24.5446C49.9416 24.4156 49.9848 24.2874 50.0273 24.1166V17.6045L50.1563 16.1902L50.327 16.0187C51.5266 16.0187 52.7694 15.9755 54.0114 15.933C54.2261 15.933 54.4401 15.933 54.6973 15.9755L54.8688 16.147C54.8688 16.2327 54.912 16.3185 54.9545 16.4042C54.997 17.6037 55.0402 18.8465 55.0828 20.0893C55.0828 21.7168 55.0828 23.3443 55.0395 25.0158C55.0395 25.1872 54.9963 25.3573 54.9538 25.5295C54.7856 25.9234 54.5995 26.3095 54.3962 26.6865L53.2824 27.8003C53.1541 27.8861 53.0252 27.9718 52.8544 28.1008C52.7687 28.1008 52.6404 28.144 52.5115 28.1865C52.4257 28.2297 52.34 28.2722 52.2118 28.3565C51.7831 28.4423 51.3119 28.528 50.8407 28.6137C50.028 28.6577 49.2146 28.7002 48.3573 28.7859ZM114.548 28.7002C113.862 28.657 113.177 28.5712 112.492 28.4855C112.106 28.4012 111.72 28.3154 111.335 28.1865C110.949 28.015 110.564 27.8003 110.178 27.5856C110.005 27.361 109.819 27.1466 109.62 26.9437C109.535 26.729 109.449 26.515 109.365 26.3004C109.321 25.9588 109.236 25.5727 109.15 25.188V23.9452C109.193 23.6022 109.236 23.2586 109.279 22.8739C109.322 22.7881 109.365 22.7024 109.449 22.6167C109.493 22.4877 109.535 22.3595 109.579 22.2305C109.579 22.2305 109.621 22.2305 109.664 22.1873C109.664 22.1455 109.664 22.103 109.707 22.0172L110.05 21.6743C110.221 21.5886 110.393 21.5028 110.606 21.3739C111.164 21.2024 111.72 21.0324 112.277 20.8602C112.535 20.817 112.791 20.7745 113.048 20.6887C113.263 20.6887 113.52 20.6887 113.776 20.6455C114.076 20.6023 114.377 20.5598 114.676 20.474C114.933 20.474 115.191 20.474 115.491 20.4308C115.534 20.4308 115.62 20.3876 115.704 20.3451C115.704 20.3451 115.704 20.3019 115.747 20.2594C115.79 20.2594 115.833 20.2594 115.919 20.2161C115.962 20.1743 116.004 20.0886 116.048 20.0029C116.048 19.7882 116.048 19.5742 116.091 19.3163C116.091 19.2731 116.048 19.1873 116.005 19.103L115.62 18.8458H112.622C112.536 18.8458 112.45 18.889 112.321 18.9316C111.849 18.9316 111.336 18.9316 110.821 18.8883C110.821 18.8451 110.778 18.8026 110.736 18.7594C110.736 18.5447 110.692 18.3307 110.65 18.1174L110.779 16.1888C110.822 16.1463 110.865 16.0605 110.95 15.9748C111.036 15.9323 111.122 15.8891 111.251 15.8466C111.807 15.7608 112.365 15.6751 112.964 15.5469C113.95 15.5469 114.934 15.5469 115.92 15.5036C116.521 15.5469 117.12 15.5894 117.762 15.6319C118.191 15.7176 118.62 15.8034 119.048 15.9323L119.818 16.1888C120.033 16.3178 120.29 16.446 120.548 16.6175C120.633 16.7457 120.718 16.8747 120.848 17.0029C120.932 17.1737 121.018 17.3451 121.104 17.5598C121.147 17.7313 121.189 17.946 121.233 18.1607C121.233 19.9596 121.233 21.7586 121.276 23.6008C121.276 24.286 121.276 25.0151 121.233 25.7427C121.147 26.1714 121.061 26.6426 120.932 27.1145C120.932 27.1145 120.889 27.1145 120.848 27.1577C120.797 27.254 120.754 27.3539 120.718 27.4567C120.633 27.5424 120.547 27.6282 120.419 27.7571C120.204 27.8861 119.947 28.0143 119.691 28.1433C119.605 28.1433 119.519 28.1433 119.39 28.1865C119.347 28.1865 119.305 28.2297 119.261 28.2722C118.62 28.3565 117.976 28.4423 117.334 28.5712C116.905 28.6144 116.434 28.657 115.962 28.7002H114.548ZM28.436 28.4855C28.1788 28.4423 27.8791 28.4012 27.5794 28.3565L27.4504 28.229C27.4504 25.572 27.4504 22.8732 27.4072 20.175C27.4072 17.7327 27.4072 15.2904 27.4504 12.8055C27.4937 12.5483 27.5362 12.2911 27.6219 12.0339C27.6651 11.9482 27.7076 11.8632 27.7502 11.7342C27.7502 11.7342 27.7934 11.7342 27.8359 11.691C27.9216 11.5195 28.0074 11.3055 28.0931 11.0916C28.2213 10.9626 28.3503 10.7919 28.5211 10.6204C28.8208 10.4482 29.1212 10.2349 29.4209 10.0203C29.6781 9.93452 29.9778 9.84879 30.2775 9.76306C31.1341 9.71984 31.9908 9.63481 32.8481 9.54908C35.0325 9.54908 37.2609 9.54908 39.4885 9.50586C40.1312 9.50586 40.817 9.50586 41.5022 9.54908C41.5454 9.59159 41.5879 9.67733 41.6311 9.76306C41.6737 10.5339 41.7169 11.3481 41.7594 12.1622C41.7594 12.4619 41.7162 12.7616 41.6737 13.1045C41.6216 13.1701 41.5785 13.2423 41.5454 13.3192C41.4597 13.3192 41.3739 13.3624 41.2882 13.4049C39.1895 13.4049 37.0894 13.4475 34.99 13.49C34.6478 13.5332 34.2623 13.5757 33.8762 13.6189C33.7479 13.7047 33.619 13.7904 33.4907 13.9186C33.405 14.0901 33.3193 14.2616 33.2335 14.4756C33.2335 15.0757 33.2335 15.6751 33.191 16.3177C33.2335 16.361 33.2768 16.446 33.3193 16.5317C33.3625 16.5317 33.405 16.575 33.4907 16.6175C35.3762 16.6175 37.3041 16.6607 39.232 16.7032C39.575 16.7032 39.9604 16.7464 40.3459 16.7889C40.3891 16.7889 40.4316 16.8322 40.4741 16.8747C40.4741 17.9892 40.4741 19.103 40.5166 20.2586L40.3884 20.5158C40.3451 20.5591 40.3026 20.6016 40.2169 20.6448C38.1182 20.6448 36.0181 20.6448 33.8762 20.688C33.7047 20.7312 33.5333 20.7738 33.3625 20.8595L33.2335 21.3732C33.191 23.6015 33.1478 25.8292 33.1053 28.1C33.0196 28.1858 32.8913 28.2715 32.7624 28.4005C31.3495 28.4012 29.8928 28.443 28.436 28.4855ZM91.4131 28.4012C90.8137 28.3154 90.2135 28.2297 89.5709 28.144C89.3137 28.1008 89.0572 28.015 88.7575 27.9293C88.4571 27.7578 88.1141 27.5431 87.7719 27.3299C87.6862 27.2441 87.6004 27.1584 87.4715 27.0727C87.3 26.8155 87.1285 26.515 86.9153 26.2146C86.8232 25.9455 86.7375 25.6743 86.6581 25.4012C86.6581 22.2213 86.4696 18.9776 86.7275 15.8055C86.8132 15.8055 86.9585 15.7623 87.0442 15.7197C87.8576 15.7197 88.6717 15.6765 89.4851 15.634C90.1271 15.6772 90.8137 15.7197 91.4988 15.763C91.4988 15.8062 91.542 15.8487 91.5846 15.8919C91.5846 16.7485 91.6278 17.6052 91.6703 18.4618C91.6703 20.4755 91.6703 22.5316 91.7135 24.5878C91.7992 24.7168 91.9282 24.845 92.0564 24.974C92.3554 25.0172 92.6984 25.0597 93.042 25.1454C93.2121 25.0597 93.4268 24.974 93.6414 24.845C93.6847 24.8018 93.7272 24.7593 93.7704 24.6735L94.0276 23.5165C94.0708 21.8033 94.1119 20.09 94.1565 18.3753C94.1983 17.6045 94.2423 16.7903 94.2841 15.9762C94.3273 15.9337 94.3698 15.848 94.4555 15.7623C95.913 15.7623 97.4116 15.7623 98.9115 15.719C98.9548 15.7623 99.0405 15.8048 99.1262 15.848C99.1262 15.9762 99.1695 16.1052 99.212 16.2334C99.212 19.232 99.212 22.2305 99.1688 25.2298C99.1255 25.487 99.083 25.7449 98.9973 26.0446C98.7826 26.3861 98.5686 26.7297 98.3121 27.1159C98.1407 27.2859 97.926 27.4574 97.7113 27.6721C97.5398 27.7578 97.3684 27.8436 97.1976 27.9725C96.7257 28.1015 96.212 28.2297 95.6976 28.3572C94.2834 28.3572 92.8706 28.3572 91.4131 28.4012ZM68.2793 28.3572C67.3794 28.3572 66.4371 28.3154 65.4947 28.2729C65.3981 28.2221 65.2977 28.179 65.1943 28.144C65.1943 27.7153 65.1511 27.2859 65.1086 26.8155C65.1086 23.3018 65.1086 19.7464 65.1518 16.1902C65.195 16.062 65.2808 15.9337 65.3665 15.8048C65.7094 15.8048 66.0516 15.7615 66.4378 15.719C67.5091 15.719 68.5783 15.719 69.6496 15.7623C69.6935 15.8055 69.7786 15.848 69.8643 15.9337C70.0152 19.6869 70.0358 23.3989 70.0358 27.1584C70.0358 27.3717 69.9925 27.6289 69.95 27.8861C69.8992 27.9827 69.8561 28.0831 69.8211 28.1865C69.7779 28.1865 69.7368 28.2297 69.6496 28.2722C69.2216 28.2729 68.7512 28.3154 68.2793 28.3572ZM74.491 28.3572C73.8902 28.3572 73.2915 28.3154 72.6921 28.2729C72.6488 28.2297 72.5631 28.1872 72.4774 28.144C72.4774 28.015 72.4342 27.8436 72.3917 27.6721C72.3917 22.1405 72.1437 16.5714 72.4349 11.0498C72.488 11.001 72.5317 10.9429 72.5638 10.8783C72.7353 10.8783 72.9053 10.8358 73.0775 10.7926C74.406 10.7926 75.7345 10.7926 77.0616 10.8358C77.1049 10.8783 77.1474 10.9215 77.1906 11.0073L77.3195 11.5209C77.3195 13.1492 77.3195 14.7774 77.3628 16.4056C77.3628 16.8336 77.406 17.2615 77.4485 17.7341C77.4917 17.7773 77.5774 17.8199 77.6632 17.9056C77.7921 17.8199 77.9622 17.7341 78.1336 17.6052L79.9773 15.763C81.0486 15.7197 82.161 15.6772 83.2748 15.634H84.9895C85.0738 15.6772 85.1595 15.7197 85.2885 15.763C85.2885 15.8919 85.2885 16.0202 85.2453 16.1909C85.0738 16.3624 84.8605 16.5339 84.6458 16.7478C84.3297 17.1439 84.001 17.5298 83.6603 17.9049C83.4783 18.0501 83.3062 18.2073 83.1451 18.3753C83.1451 18.4186 83.1451 18.4611 83.1019 18.5468C82.7172 18.933 82.2885 19.3177 81.8606 19.7464C81.7948 19.8642 81.7232 19.9787 81.6459 20.0893C81.6459 20.1325 81.6459 20.2168 81.6891 20.3026C81.7748 20.3458 81.8606 20.3883 81.9881 20.4315C82.1171 20.4315 82.2453 20.4315 82.4168 20.4748C82.5025 20.518 82.5882 20.5605 82.7172 20.6462C82.8029 20.6462 82.9319 20.6462 83.0587 20.6894C83.2734 20.8184 83.4874 20.9466 83.7021 21.1181C83.7453 21.1613 83.7878 21.2024 83.831 21.2881C83.9167 21.3314 84.0025 21.3739 84.13 21.4171C84.3447 21.8033 84.5587 22.188 84.8166 22.6167L84.9455 25.188C84.9455 26.1303 84.9023 27.0727 84.8598 28.015C84.8166 28.0582 84.7741 28.1007 84.7309 28.1865C84.6451 28.1865 84.5594 28.2297 84.4737 28.2722H80.2749C80.2316 28.229 80.1459 28.1865 80.0602 28.1433C80.0076 28.094 79.964 28.036 79.9312 27.9718C79.8894 26.5576 79.8455 25.1447 79.8037 23.6873C79.7548 23.5462 79.7118 23.4032 79.6747 23.2586C79.46 23.1311 79.2461 23.0028 78.9881 22.8306H78.3462C78.089 22.8739 77.79 22.9164 77.4896 22.9596C77.4464 23.1311 77.4039 23.3011 77.3606 23.5158C77.3606 25.0158 77.3606 26.5576 77.3174 28.1008C77.2742 28.144 77.2317 28.1865 77.1459 28.2297C76.6755 28.2729 76.1604 28.3154 75.6474 28.3572H74.491ZM104.052 28.2729C103.281 28.2297 102.509 28.1872 101.695 28.144L101.481 27.9293L101.352 27.0294C101.352 24.8011 101.395 22.5302 101.437 20.2594L101.566 18.3314C101.652 18.0756 101.738 17.8177 101.867 17.518C101.867 17.518 101.91 17.518 101.953 17.4748C101.953 17.4316 101.953 17.3891 101.996 17.3033C102.082 17.1744 102.167 17.0468 102.296 16.8754C102.424 16.7464 102.552 16.6182 102.724 16.4467C103.025 16.2752 103.366 16.1045 103.71 15.933C103.924 15.8898 104.138 15.8473 104.353 15.7615C104.652 15.7183 104.995 15.6758 105.339 15.6326H107.393C107.822 15.6758 108.294 15.7183 108.765 15.7615C108.851 15.8048 108.98 15.8473 109.108 15.933L109.28 16.1045C109.28 16.4467 109.323 16.7896 109.365 17.1751V18.4604C109.316 18.6014 109.273 18.7444 109.236 18.889C108.679 18.889 108.079 18.9323 107.479 18.9748C107.266 19.018 107.051 19.1037 106.837 19.188C106.708 19.317 106.581 19.4885 106.451 19.6599C106.408 20.3019 106.367 20.9452 106.281 21.5879C106.281 23.5158 106.281 25.4862 106.238 27.4567C106.238 27.6714 106.195 27.8854 106.152 28.1C106.023 28.1433 105.852 28.1858 105.68 28.2715C105.166 28.2729 104.608 28.2729 104.052 28.2729ZM114.847 25.2723L114.463 25.1447C114.376 25.0059 114.275 24.8764 114.162 24.7586C114.162 24.5439 114.162 24.3299 114.205 24.1166C114.291 23.9877 114.377 23.8594 114.506 23.7305C114.592 23.6448 114.719 23.559 114.847 23.4733C115.062 23.4301 115.276 23.3443 115.534 23.2586H115.962C116.005 23.3018 116.091 23.3443 116.177 23.4301C116.177 23.8162 116.177 24.201 116.22 24.5871L116.091 25.1022C116.048 25.1454 115.962 25.1879 115.876 25.2298C115.534 25.2298 115.191 25.2298 114.847 25.2723ZM58.0827 14.477C57.9545 14.477 57.8262 14.477 57.6547 14.4337C57.6115 14.3912 57.569 14.3055 57.4833 14.2198C57.4833 13.4489 57.4833 12.6348 57.4401 11.8207C57.4401 11.5635 57.4833 11.3063 57.5258 11.0491L57.6547 10.9208C57.783 10.9208 57.912 10.8776 58.0827 10.8351C59.368 10.8351 60.6533 10.8351 61.9386 10.7919C62.0243 10.7919 62.1533 10.7919 62.2815 10.8351C62.3247 10.8776 62.3672 10.9208 62.453 10.9633C62.453 11.0491 62.4962 11.178 62.5373 11.3063V12.5483C62.4955 12.7623 62.4098 12.9763 62.324 13.2335C62.1526 13.4475 61.9379 13.7047 61.7232 13.9619C61.5848 14.0481 61.4559 14.1485 61.3384 14.2616C61.0812 14.3048 60.824 14.3905 60.5668 14.4756C59.7534 14.477 58.9393 14.477 58.0827 14.477ZM65.7094 14.4337C65.6237 14.4337 65.4947 14.3912 65.3665 14.348C65.3233 14.3048 65.2375 14.2623 65.1518 14.1765V11.4777C65.1518 11.3063 65.195 11.1348 65.2375 10.9633L65.3665 10.8351C66.6504 10.8351 67.9364 10.8351 69.2649 10.7919C69.3938 10.7919 69.5221 10.7919 69.6935 10.8351C69.7368 10.8776 69.8211 10.9208 69.9068 11.0065C69.95 11.178 69.9925 11.392 70.0358 11.6067C70.0358 11.8639 69.9925 12.1636 69.95 12.4633C69.9068 12.6348 69.8643 12.8062 69.8211 13.0202C69.7392 13.2423 69.6392 13.4572 69.5221 13.6629L69.2216 13.9626C69.0927 14.0483 68.9212 14.134 68.7512 14.2623C68.494 14.3055 68.2361 14.348 67.9789 14.4337H65.7094Z" fill="white"/>
</svg>
