<svg width="124" height="28" viewBox="0 0 124 28" fill="none" xmlns="http://www.w3.org/2000/svg">
<g clip-path="url(#clip0_302_103)">
<path d="M67.4495 9.31542H70.2221V17.149C70.2221 21.1253 68.0644 23.4061 64.3051 23.4061C60.5459 23.4061 58.4467 21.1652 58.4467 17.2579V9.32494H61.2194V17.1686C61.2194 19.4893 62.342 20.7288 64.3438 20.7288C66.3457 20.7288 67.4489 19.519 67.4489 17.268V9.31542H67.4495ZM51.8275 14.9081H45.5593V9.31542H42.7866V23.1977H45.5593V17.5556H51.8181V23.1977H54.5908V9.31542H51.8181V14.9081H51.828H51.8275ZM121.267 9.31542V23.178H124.001V9.31542H121.267ZM110.38 17.218H115.427V14.6896H110.38V11.8439H117.702V9.32494H107.646V23.1876H117.966V20.6591H110.379V17.218H110.38ZM99.503 18.8546L96.3979 9.3053H94.1329L91.0278 18.8546L88.0107 9.31542H85.0622L89.8267 23.1882H92.1211L95.2261 14.0752L98.3312 23.1882H100.645L105.399 9.31542H102.519L99.5018 18.8546H99.503ZM80.1323 9.3946L86.098 23.1882H83.1887L81.9583 20.3025H75.6995L75.6116 20.5008L74.4597 23.1882H71.6284L77.6527 9.31542H80.0743L80.1329 9.3946H80.1323ZM80.7959 17.4663L78.8233 12.8155L76.8607 17.4663L76.7242 17.7836H80.9225L80.7953 17.4663H80.7959Z" fill="white"/>
<path d="M15.487 21.7201C15.5262 21.6903 15.5356 21.6308 15.5163 21.5814C12.8239 15.7047 9.46561 10.1668 5.50882 5.08078C5.50882 5.08078 2.36507 8.11526 2.58959 11.1593C2.69569 12.5768 3.35281 13.8931 4.41557 14.8182C7.15895 17.5354 13.7982 20.9664 15.341 21.7499C15.3897 21.7695 15.4483 21.76 15.4876 21.7201M14.4617 24.0407C14.4424 23.9812 14.3838 23.9413 14.3152 23.9413L3.26253 24.3283C4.46364 26.5001 6.48424 28.1855 8.58398 27.67C10.0389 27.3032 13.3192 24.9731 14.4031 24.1795C14.491 24.1098 14.4617 24.0503 14.4617 24.0407ZM14.6276 23.0394C14.6862 22.9501 14.5883 22.8709 14.5883 22.8709C9.73643 19.5387 0.323956 14.4217 0.323956 14.4217C-0.796842 17.9099 1.07956 21.6605 4.51405 22.7983C5.06683 22.9816 5.64071 23.0888 6.22104 23.118C6.38693 23.1477 12.7922 23.118 14.5104 23.1078C14.559 23.0977 14.5983 23.0781 14.6276 23.0382M15.3604 0.232289C14.882 0.272177 13.5836 0.579375 13.5836 0.579375C10.6544 1.3432 9.96153 4.05024 9.96153 4.05024C9.42458 5.74578 9.97149 7.61993 9.97149 7.61993C10.9481 12.0225 15.7513 19.2714 16.7866 20.7884C16.8551 20.8676 16.9138 20.8378 16.9138 20.8378C16.9724 20.8181 17.021 20.7681 17.021 20.6991C18.6213 4.5158 15.3604 0.232289 15.3604 0.232289ZM19.0217 20.8181C19.0803 20.8378 19.1489 20.8181 19.1776 20.7586C20.2422 19.2018 25.0161 11.9927 25.9927 7.60981C25.9927 7.60981 26.5197 5.488 26.012 4.04012C26.012 4.04012 25.2893 1.29319 22.3606 0.569254C22.3606 0.569254 21.5212 0.351358 20.6226 0.222168C20.6226 0.222168 17.3423 4.50568 18.9432 20.6889C18.9332 20.7485 18.9725 20.7979 19.0211 20.8181M21.6379 23.9514C21.5851 23.9622 21.5394 23.9943 21.5107 24.0407C21.5007 24.1003 21.5107 24.1497 21.5499 24.1896C22.6045 24.9629 25.8168 27.2437 27.3591 27.6801C27.3591 27.6801 30.2197 28.6719 32.6999 24.3384L21.6379 23.9514ZM35.649 14.4021C35.649 14.4021 26.2565 19.5286 21.394 22.8608C21.3454 22.9007 21.3161 22.9602 21.3354 23.0191C21.3354 23.0191 21.3841 23.1084 21.4526 23.1084C23.1907 23.1084 29.7713 23.1186 29.9471 23.0888C30.6013 23.0394 31.2455 22.8905 31.8511 22.6423C31.8511 22.6423 34.1941 21.8886 35.4052 19.1815C35.4052 19.1815 36.489 16.9799 35.649 14.4021ZM20.5054 21.7201C20.5446 21.7499 20.6032 21.76 20.6519 21.7302C22.2334 20.9271 28.824 17.5259 31.548 14.8188C31.548 14.8188 33.2761 13.4109 33.364 11.1402C33.5592 7.99678 30.4448 5.08138 30.4448 5.08138C30.4448 5.08138 24.6843 12.1713 20.4567 21.5421C20.4432 21.6064 20.4614 21.6731 20.5054 21.7207" fill="white"/>
</g>
<defs>
<clipPath id="clip0_302_103">
<rect width="124" height="27.5556" fill="white" transform="translate(0 0.222168)"/>
</clipPath>
</defs>
</svg>
