<svg width="124" height="40" viewBox="0 0 124 40" fill="none" xmlns="http://www.w3.org/2000/svg">
<path d="M30.2668 33.0753C29.7033 33.341 29.1417 33.1432 28.721 32.9082C28.2979 32.6683 28.0304 32.2727 27.9177 31.72C27.5457 29.9286 27.9446 25.2725 29.1102 17.7617C29.1644 17.4082 29.1644 17.1003 29.1102 16.841C29.0468 16.533 27.7905 16.6285 27.7905 16.6285C27.7305 16.3288 30.0991 13.4996 31.1056 13.2954C31.6546 13.1771 32.1028 13.1966 32.4352 13.3408C32.769 13.482 32.9782 13.7299 33.0463 14.0768C33.1323 14.4984 32.9376 16.374 32.4644 19.717C31.695 25.1899 31.4179 28.4501 31.6358 29.4924C31.6764 29.6871 31.7631 29.8329 31.918 29.9383C32.0672 30.042 33.3875 29.7778 33.3875 29.7778C31.9261 32.2096 30.9646 32.7493 30.2668 33.0753ZM39.8844 14.239V10.4196L30.5837 12.3291L21.2832 10.4196V14.239L18.5581 14.7934V31.6291L21.2832 32.1868V35.9998L30.5837 34.0917L39.8844 35.9998V32.1868L42.6103 31.6291V14.7934L39.8844 14.239Z" fill="white"/>
<path d="M34.1912 7.60572C34.1912 9.59971 32.5783 11.2159 30.5873 11.2159C28.5918 11.2159 26.9771 9.59971 26.9771 7.60572C26.9771 5.61487 28.5918 4.00028 30.5873 4.00028C32.5783 4.00028 34.1912 5.61487 34.1912 7.60572Z" fill="white"/>
<path d="M77.9392 12.6305V20.7623L65.5301 12.6305H63.6163C63.3764 12.6305 63.1859 12.8235 63.1859 13.0505V23.9519H65.8697V15.8202L78.279 23.9519H80.1927C80.4325 23.9519 80.6232 23.7591 80.6232 23.5321V12.6305H77.9392Z" fill="white"/>
<path d="M58.9326 12.6306V20.7624L46.5233 12.6306H44.6097C44.3698 12.6306 44.1793 12.8236 44.1793 13.0506V23.952H46.8632V15.8204L59.2723 23.952H61.1861C61.4259 23.952 61.6165 23.7592 61.6165 23.5322V12.6306H58.9326Z" fill="white"/>
<path d="M95.2681 21.3338C95.2681 21.5691 95.0736 21.757 94.8379 21.757H84.9575C84.716 21.757 84.5255 21.5691 84.5255 21.3338V15.2401C84.5255 15.005 84.716 14.8136 84.9575 14.8136H94.8379C95.0736 14.8136 95.2681 15.005 95.2681 15.2401V21.3338ZM97.1187 12.6186H82.6717C82.435 12.6186 82.2455 12.8098 82.2455 13.04V23.5322C82.2455 23.7592 82.435 23.952 82.6717 23.952H97.1187C97.3587 23.952 97.5491 23.7592 97.5491 23.5322V13.04C97.5491 12.8098 97.3587 12.6186 97.1187 12.6186Z" fill="white"/>
<path d="M44.1788 26.2541H44.8072V33.1959H44.1788V26.2541Z" fill="white"/>
<path d="M47.0952 33.1958V28.4612H47.7364L50.2264 32.1769V28.4612H50.8255V33.1958H50.185L47.6952 29.4775V33.1958H47.0952Z" fill="white"/>
<path d="M52.8656 31.6723L53.4629 31.6171C53.4896 31.8554 53.5521 32.0534 53.6543 32.2025C53.7555 32.3549 53.9152 32.4788 54.1292 32.5736C54.3449 32.6668 54.5823 32.7115 54.8523 32.7115C55.0913 32.7115 55.3007 32.6791 55.4838 32.6043C55.6669 32.5362 55.7998 32.4359 55.8924 32.3119C55.9829 32.1895 56.0243 32.0534 56.0243 31.909C56.0243 31.7589 55.9829 31.6317 55.8963 31.5232C55.8087 31.4122 55.6718 31.3157 55.4707 31.242C55.3419 31.1908 55.0615 31.1146 54.6286 31.0125C54.1989 30.9087 53.8926 30.8083 53.7166 30.7149C53.4929 30.5973 53.3243 30.45 53.215 30.27C53.1046 30.0982 53.0456 29.902 53.0456 29.6848C53.0456 29.4423 53.1145 29.2196 53.2514 29.0136C53.3836 28.8028 53.5805 28.6489 53.8463 28.5378C54.1016 28.4283 54.3903 28.3772 54.7096 28.3772C55.0582 28.3772 55.3695 28.4316 55.6362 28.5476C55.9052 28.6619 56.1063 28.8207 56.253 29.0443C56.3988 29.264 56.4768 29.5112 56.4864 29.791L55.8873 29.8387C55.8501 29.5388 55.7439 29.3182 55.5567 29.166C55.3751 29.0103 55.1004 28.9365 54.7395 28.9365C54.3594 28.9365 54.0838 29.0038 53.9152 29.1434C53.7402 29.2785 53.6543 29.4489 53.6543 29.645C53.6543 29.8136 53.7126 29.9571 53.8367 30.0658C53.9556 30.1752 54.2718 30.2846 54.7753 30.3997C55.2827 30.5188 55.6296 30.6153 55.8226 30.7021C56.1022 30.8309 56.3033 30.9897 56.4321 31.1875C56.5634 31.3804 56.6332 31.605 56.6332 31.8554C56.6332 32.1076 56.5586 32.345 56.4191 32.5703C56.2708 32.7892 56.0651 32.9626 55.7959 33.086C55.525 33.2107 55.2187 33.274 54.8847 33.274C54.4535 33.274 54.0968 33.2107 53.805 33.086C53.5155 32.9626 53.2927 32.7698 53.1274 32.5233C52.9621 32.2705 52.8768 31.99 52.8656 31.6723Z" fill="white"/>
<path d="M59.887 33.1959V29.0191H58.3257V28.4595H62.0697V29.0191H60.5151V33.1959H59.887Z" fill="white"/>
<path d="M64.55 30.5476H65.9005C66.1849 30.5476 66.4127 30.5207 66.5732 30.46C66.7345 30.4 66.8578 30.3043 66.9396 30.1755C67.0222 30.0483 67.0686 29.9071 67.0686 29.7515C67.0686 29.5262 66.9859 29.3429 66.8254 29.2037C66.66 29.0544 66.3999 28.9832 66.052 28.9832H64.55V30.5476ZM63.9242 33.1958V28.4594H66.0244C66.4442 28.4594 66.7646 28.5 66.9891 28.5892C67.2088 28.6702 67.3878 28.821 67.5159 29.0366C67.6481 29.2514 67.7129 29.4889 67.7129 29.7515C67.7129 30.0854 67.6083 30.3691 67.3878 30.5977C67.169 30.8262 66.8343 30.9755 66.3771 31.0364C66.5448 31.1198 66.6689 31.196 66.7557 31.2754C66.9396 31.4441 67.113 31.6531 67.2776 31.9045L68.0971 33.1958H67.315L66.6836 32.2092C66.5053 31.9263 66.3537 31.7051 66.2304 31.5591C66.1112 31.4075 66.0049 31.2965 65.9144 31.2389C65.8185 31.1781 65.722 31.1376 65.6257 31.1149C65.5574 31.1004 65.4368 31.0971 65.2788 31.0971H64.55V33.1958H63.9242Z" fill="white"/>
<path d="M72.9982 28.4605H73.6216V31.1923C73.6216 31.6689 73.5713 32.0499 73.4642 32.3302C73.3557 32.6058 73.1596 32.8353 72.8798 33.0103C72.5954 33.1822 72.2256 33.2754 71.7718 33.2754C71.3244 33.2754 70.9629 33.1969 70.6841 33.0435C70.3987 32.8929 70.1976 32.6684 70.0737 32.382C69.9561 32.0887 69.8953 31.6964 69.8953 31.1923V28.4605H70.5228V31.1889C70.5228 31.5999 70.56 31.9056 70.6371 32.1009C70.7116 32.2923 70.8479 32.4422 71.031 32.5491C71.219 32.652 71.4468 32.7112 71.7126 32.7112C72.1794 32.7112 72.5045 32.6025 72.7007 32.3967C72.8978 32.186 72.9982 31.7847 72.9982 31.1889V28.4605Z" fill="white"/>
<path d="M75.8353 33.1959V28.4595H76.782L77.9022 31.8139C78.0037 32.1259 78.0805 32.3586 78.1309 32.5142C78.1818 32.3406 78.2694 32.0877 78.3827 31.7547L79.5193 28.4595H80.3688V33.1959H79.7609V29.2345L78.3781 33.1959H77.8113L76.4438 29.16V33.1959H75.8353Z" fill="white"/>
<path d="M82.5767 33.1959V28.4595H85.999V29.0191H83.2042V30.4634H85.8207V31.0226H83.2042V32.6399H86.1084V33.1959H82.5767Z" fill="white"/>
<path d="M88.1635 33.1959V28.4595H88.8038L91.2932 32.177V28.4595H91.8921V33.1959H91.2534L88.7634 29.4777V33.1959H88.1635Z" fill="white"/>
<path d="M95.3489 33.1959V26.8126H93.7885V26.2541H97.5359V26.8126H95.9746V33.1959H95.3489Z" fill="white"/>
<path d="M99.219 6.54922V6.20232H101.826V6.54922H100.74V9.29871H100.306V6.54922H99.219Z" fill="white"/>
<path d="M102.79 6.20232L103.817 8.80417L104.848 6.20232H105.442V9.29871H105.031V6.72259H105.022L104.004 9.29871H103.634L102.616 6.72259H102.607V9.29871H102.196V6.20232H102.79Z" fill="white"/>
</svg>
