<svg width="353" height="367" viewBox="0 0 353 367" fill="none" xmlns="http://www.w3.org/2000/svg">
<path fill-rule="evenodd" clip-rule="evenodd" d="M159.759 347.144C170.996 347.495 184.266 347.031 199.18 345.775L329.797 334.772L329.712 333.773L199.096 344.776C184.208 346.03 170.978 346.491 159.79 346.141C148.737 345.793 139.197 344.546 131.381 342.426C123.67 340.324 116.315 336.894 109.55 332.223C102.807 327.536 95.9647 321.105 89.2479 313.117C82.5099 305.098 74.7811 294.703 66.2657 282.201L66.2637 282.198L-76.1377 79.4783L-76.9581 80.0546L65.4371 282.766C65.4377 282.767 65.4384 282.768 65.439 282.769C73.9652 295.286 81.714 305.71 88.4803 313.762L88.4805 313.762C95.2403 321.801 102.146 328.298 108.978 333.046L108.98 333.047C115.836 337.782 123.295 341.261 131.117 343.393L131.118 343.393C139.031 345.54 148.654 346.793 159.759 347.144Z" fill="#CD001A" stroke="#CD001A" stroke-width="0.662344" stroke-miterlimit="10"/>
<path fill-rule="evenodd" clip-rule="evenodd" d="M162.938 340.384C174.174 340.735 187.444 340.271 202.359 339.015L332.975 328.012L332.891 327.013L202.275 338.016C187.387 339.27 174.157 339.731 162.969 339.382C151.916 339.033 142.376 337.786 134.559 335.666C126.849 333.564 119.493 330.134 112.729 325.463C105.986 320.777 99.1434 314.345 92.4266 306.358C85.6886 298.339 77.9599 287.943 69.4444 275.441L69.4424 275.438L-72.9589 72.7186L-73.7794 73.2949L68.6158 276.006C68.6165 276.007 68.6171 276.008 68.6178 276.009C77.1439 288.526 84.8927 298.95 91.659 307.003L91.6592 307.003C98.419 315.041 105.325 321.539 112.157 326.287L112.158 326.287C119.014 331.022 126.473 334.501 134.296 336.633L134.296 336.634C142.21 338.78 151.833 340.033 162.938 340.384Z" fill="#CD001A" stroke="#CD001A" stroke-width="0.662344" stroke-miterlimit="10"/>
<path fill-rule="evenodd" clip-rule="evenodd" d="M166.116 333.624C177.353 333.975 190.623 333.512 205.538 332.255L336.154 321.252L336.07 320.253L205.454 331.256C190.565 332.51 177.336 332.972 166.148 332.622C155.095 332.273 145.554 331.026 137.738 328.906C130.028 326.804 122.672 323.374 115.907 318.703C109.164 314.017 102.322 307.585 95.6053 299.598C88.8673 291.579 81.1386 281.184 72.6231 268.682L72.6211 268.679L-69.7802 65.9588L-70.6006 66.5351L71.7945 269.246C71.7952 269.247 71.7958 269.248 71.7965 269.249C80.3226 281.766 88.0714 292.19 94.8378 300.243L94.8379 300.243C101.598 308.281 108.504 314.779 115.336 319.527L115.337 319.528C122.193 324.262 129.652 327.741 137.474 329.874L137.475 329.874C145.389 332.02 155.011 333.274 166.116 333.624Z" fill="#CD001A" stroke="#CD001A" stroke-width="0.662344" stroke-miterlimit="10"/>
<path fill-rule="evenodd" clip-rule="evenodd" d="M169.295 326.863C180.532 327.215 193.802 326.751 208.716 325.494L339.333 314.491L339.249 313.492L208.632 324.495C193.744 325.75 180.514 326.211 169.326 325.861C158.274 325.512 148.733 324.265 140.917 322.146C133.206 320.044 125.851 316.614 119.086 311.942C112.343 307.256 105.501 300.824 98.7841 292.837C92.046 284.818 84.3173 274.423 75.8019 261.921L75.7998 261.918L-66.6015 59.1981L-67.4219 59.7744L74.9732 262.485C74.9739 262.486 74.9745 262.487 74.9752 262.488C83.5013 275.006 91.2501 285.429 98.0165 293.482L98.0166 293.482C104.776 301.521 111.683 308.018 118.514 312.766L118.516 312.767C125.372 317.501 132.831 320.98 140.653 323.113L140.654 323.113C148.567 325.259 158.19 326.513 169.295 326.863Z" fill="#CD001A" stroke="#CD001A" stroke-width="0.662344" stroke-miterlimit="10"/>
<path fill-rule="evenodd" clip-rule="evenodd" d="M172.475 320.103C183.712 320.454 196.981 319.99 211.896 318.734L342.512 307.731L342.428 306.732L211.812 317.735C196.924 318.989 183.694 319.45 172.506 319.1C161.453 318.752 151.913 317.505 144.097 315.385C136.386 313.283 129.03 309.853 122.266 305.182C115.523 300.495 108.681 294.064 101.964 286.076C95.2257 278.057 87.497 267.662 78.9815 255.16L78.9795 255.157L-63.4218 52.4373L-64.2422 53.0136L78.1529 255.725C78.1536 255.726 78.1542 255.727 78.1549 255.727C86.681 268.245 94.4298 278.669 101.196 286.721L101.196 286.721C107.956 294.76 114.862 301.257 121.694 306.005L121.695 306.006C128.552 310.741 136.01 314.22 143.833 316.352L143.833 316.352C151.747 318.499 161.37 319.752 172.475 320.103Z" fill="#CD001A" stroke="#CD001A" stroke-width="0.662344" stroke-miterlimit="10"/>
<path fill-rule="evenodd" clip-rule="evenodd" d="M175.654 313.341C186.89 313.692 200.16 313.228 215.075 311.972L345.691 300.969L345.607 299.97L214.991 310.973C200.102 312.227 186.873 312.688 175.685 312.339C164.632 311.99 155.091 310.743 147.275 308.623C139.565 306.521 132.209 303.091 125.444 298.42C118.701 293.734 111.859 287.302 105.142 279.315C98.4044 271.296 90.6757 260.9 82.1603 248.399L82.1582 248.396L-60.2431 45.6756L-61.0635 46.2519L81.3316 248.963C81.3323 248.964 81.3329 248.965 81.3336 248.966C89.8597 261.483 97.6085 271.907 104.375 279.96L104.375 279.96C111.135 287.998 118.041 294.496 124.873 299.244L124.874 299.244C131.73 303.979 139.189 307.458 147.012 309.59L147.012 309.591C154.926 311.737 164.549 312.99 175.654 313.341Z" fill="#CD001A" stroke="#CD001A" stroke-width="0.662344" stroke-miterlimit="10"/>
<path fill-rule="evenodd" clip-rule="evenodd" d="M178.832 306.582C190.069 306.933 203.339 306.47 218.253 305.213L348.87 294.21L348.786 293.211L218.169 304.214C203.281 305.468 190.051 305.93 178.864 305.58C167.811 305.231 158.27 303.984 150.454 301.864C142.743 299.762 135.388 296.332 128.623 291.661C121.88 286.975 115.038 280.543 108.321 272.556C101.583 264.537 93.8544 254.142 85.339 241.64L85.3369 241.637L-57.0644 38.9168L-57.8848 39.4931L84.5103 242.204C84.511 242.205 84.5116 242.206 84.5123 242.207C93.0384 254.725 100.787 265.148 107.554 273.201L107.554 273.201C114.314 281.239 121.22 287.737 128.052 292.485L128.053 292.486C134.909 297.22 142.368 300.699 150.19 302.832L150.191 302.832C158.104 304.978 167.727 306.232 178.832 306.582Z" fill="#CD001A" stroke="#CD001A" stroke-width="0.662344" stroke-miterlimit="10"/>
<path fill-rule="evenodd" clip-rule="evenodd" d="M182.012 299.821C193.249 300.173 206.518 299.709 221.433 298.452L352.05 287.449L351.965 286.45L221.349 297.453C206.461 298.708 193.231 299.169 182.043 298.819C170.99 298.47 161.45 297.223 153.634 295.104C145.923 293.002 138.568 289.572 131.803 284.9C125.06 280.214 118.218 273.782 111.501 265.795C104.763 257.776 97.0341 247.381 88.5187 234.879L88.5166 234.876L-53.8847 32.1561L-54.7051 32.7324L87.69 235.443C87.6907 235.444 87.6913 235.445 87.692 235.446C96.2181 247.964 103.967 258.387 110.733 266.44L110.733 266.44C117.493 274.479 124.399 280.976 131.231 285.724L131.232 285.725C138.089 290.459 145.547 293.938 153.37 296.071L153.371 296.071C161.284 298.217 170.907 299.471 182.012 299.821Z" fill="#CD001A" stroke="#CD001A" stroke-width="0.662344" stroke-miterlimit="10"/>
</svg>
