<svg width="101" height="32" viewBox="0 0 101 32" fill="none" xmlns="http://www.w3.org/2000/svg">
<path d="M26.7393 23.7694V3.86122C26.7393 3.72241 26.6262 3.60938 26.4874 3.60938H17.6114C16.5699 3.60938 15.6481 3.65509 14.8718 3.74486C14.1055 3.83379 13.4472 3.97675 12.9144 4.17041C12.3875 4.36241 11.8937 4.64584 11.4491 5.01156C11.0052 5.37893 10.5664 5.86766 10.1458 6.46278C9.7244 7.05956 9.24814 7.82756 8.72949 8.74517L0.0338003 23.6439C-0.0626153 23.8118 0.0587353 24.0212 0.252398 24.0212H5.46133C5.55193 24.0212 5.63505 23.973 5.67993 23.894L8.24658 19.4024H21.5877V23.7685C21.5877 23.9073 21.7007 24.0204 21.8395 24.0204H26.4874C26.6262 24.0204 26.7393 23.9073 26.7393 23.7685V23.7694ZM10.6927 15.1186L13.2968 10.5779C13.7015 9.86724 14.1155 9.55971 14.5269 9.17073C14.9425 8.77426 15.4636 8.47836 16.077 8.28969C16.6771 8.10849 17.4119 8.07542 18.2622 8.03303C19.1016 7.99397 20.1647 7.97402 21.4198 7.97402H21.5877V15.1177H10.6927V15.1186Z" fill="#CD001A"/>
<path d="M35.5622 0H30.9425C30.8034 0 30.6907 0.112754 30.6907 0.251844V23.7689C30.6907 23.908 30.8034 24.0208 30.9425 24.0208H35.5622C35.7012 24.0208 35.814 23.908 35.814 23.7689V0.251844C35.814 0.112754 35.7012 0 35.5622 0Z" fill="#CD001A"/>
<path d="M54.5496 23.672C55.4373 23.4509 56.1554 23.0943 56.684 22.613C57.2085 22.1376 57.5908 21.5117 57.8211 20.7529C58.0555 19.9816 58.1743 19.0423 58.1743 17.9618V13.998C58.1743 12.9183 58.0555 11.9857 57.8211 11.2244C57.5917 10.4788 57.2093 9.8571 56.684 9.37835C56.1587 8.90043 55.4406 8.54469 54.5488 8.31944C53.6469 8.09419 52.5099 7.97949 51.1692 7.97949H45.5248C45.386 7.97949 45.2729 8.09253 45.2729 8.23134V12.0265C45.2729 12.1661 45.386 12.2791 45.5256 12.2783L49.6366 12.2675C50.2707 12.2675 50.8044 12.2982 51.2224 12.3598C51.6563 12.4262 51.9996 12.5717 52.2423 12.7928C52.4858 13.0147 52.6595 13.3314 52.7576 13.732C52.8507 14.1152 52.8981 14.628 52.8981 15.258V16.7001C52.8981 17.331 52.8507 17.8496 52.7584 18.2419C52.6604 18.6534 52.4866 18.975 52.2431 19.1978C52.0004 19.4189 51.658 19.5643 51.2249 19.6308C50.806 19.6923 50.2732 19.7231 49.6391 19.7231H44.9388V12.8676C44.9388 12.7288 44.8258 12.6158 44.687 12.6158H40.0341C39.8953 12.6158 39.7822 12.7288 39.7822 12.8676V31.7484C39.7822 31.8872 39.8953 32.0003 40.0341 32.0003H44.687C44.8258 32.0003 44.9388 31.8872 44.9388 31.7484V24.0111H51.1709C52.5116 24.0111 53.6486 23.8972 54.5513 23.6711L54.5496 23.672Z" fill="#CD001A"/>
<path d="M73.155 12.3695C73.5889 12.4359 73.9321 12.5814 74.1748 12.8025C74.4184 13.0244 74.5921 13.3411 74.6902 13.7417C74.7833 14.1249 74.8306 14.6377 74.8306 15.2677V23.7681C74.8306 23.9069 74.9437 24.0199 75.0825 24.0199H79.8551C79.9939 24.0199 80.1069 23.9069 80.1069 23.7681V14.006C80.1069 12.9263 79.988 11.9938 79.7537 11.2324C79.5242 10.486 79.1419 9.86514 78.6166 9.38639C78.0913 8.90847 77.3732 8.55273 76.4813 8.32748C75.5787 8.10223 74.4408 7.98753 73.1018 7.98753H66.8697V0.251844C66.8697 0.113039 66.7567 0 66.6179 0H61.965C61.8262 0 61.7131 0.113039 61.7131 0.251844V23.7689C61.7131 23.9077 61.8262 24.0208 61.965 24.0208H66.6179C66.7567 24.0208 66.8697 23.9077 66.8697 23.7689V12.2772H71.57C72.2041 12.2772 72.7378 12.3079 73.155 12.3695Z" fill="#CD001A"/>
<path d="M99.5591 9.3902C99.0031 8.94175 98.275 8.605 97.3958 8.39086C96.5039 8.17251 95.3845 8.0625 94.0702 8.0625H85.3365C85.1962 8.0625 85.082 8.17671 85.082 8.31695V11.7987C85.082 11.9389 85.1962 12.0532 85.3365 12.0532H92.452C93.3153 12.0532 94.1962 12.0817 94.7933 12.2866C95.2863 12.4579 95.6272 12.7409 95.7011 13.3279C95.7171 13.4556 95.8246 13.5522 95.953 13.5522H100.625C100.77 13.5522 100.886 13.4304 100.879 13.2851C100.851 12.6813 100.777 11.6148 100.602 11.1218C100.36 10.4416 100.114 9.84116 99.5591 9.3902Z" fill="#CD001A"/>
<path d="M84.2961 16.292C84.0119 16.6901 83.8199 17.1822 83.7243 17.7557C83.627 18.3408 83.5771 19.029 83.5771 19.802C83.5771 20.6623 83.6702 21.3721 83.8531 21.9124C84.0326 22.4385 84.3169 22.8632 84.7001 23.1733C85.0866 23.4841 85.5977 23.7052 86.2186 23.8282C86.847 23.9562 87.6382 24.021 88.5725 24.021H100.628C100.767 24.021 100.88 23.908 100.88 23.7692V18.1089C100.88 17.9701 100.767 17.8571 100.628 17.8571H96.0148C95.876 17.8571 95.7629 17.9701 95.7629 18.1089L95.7629 19.9417H90.8347C90.0725 19.9417 89.6256 20.0422 89.3912 19.9417C89.1177 19.8236 88.9673 19.5369 88.944 19.0889V19.0806C88.944 18.596 89.0787 18.2743 89.3438 18.1231C89.5782 17.9893 89.9979 17.8945 90.6255 17.833L95.1902 17.5462C95.3232 17.5379 95.4263 17.4274 95.4263 17.2944V14.0603C95.4263 13.9082 95.2916 13.7902 95.1412 13.811L87.5136 14.8308C86.6683 14.9297 85.9842 15.1009 85.4772 15.342C84.9752 15.578 84.5787 15.898 84.2961 16.2928V16.292Z" fill="#CD001A"/>
</svg>
