<svg width="124" height="40" viewBox="0 0 124 40" fill="none" xmlns="http://www.w3.org/2000/svg">
<path fill-rule="evenodd" clip-rule="evenodd" d="M20.6452 13.2458C21.0588 13.0605 24.9182 13.1588 25.7082 13.1588C30.7854 13.1588 31.12 12.5969 31.1189 15.4296L31.1194 20.5946C31.1225 21.4499 31.0363 22.1324 30.3866 22.3581C29.919 22.5204 26.095 22.4321 25.2921 22.4321C20.2608 22.4321 19.8987 22.9772 19.8999 20.1774L19.8994 15.0124C19.8963 14.0813 19.964 13.5498 20.6451 13.2458H20.6452ZM16.5994 21.7601C16.8124 24.0613 18.5363 26.1189 20.8799 26.2102C23.6843 26.3202 26.706 26.2102 29.536 26.2145C31.0871 26.2176 31.9379 25.9236 32.7837 25.095C33.4829 24.41 34.0766 23.6386 34.3399 22.322C34.5176 21.4319 34.5243 14.8439 34.4181 13.7922C34.1834 11.4662 32.4894 9.43846 30.1221 9.37617C27.2742 9.30109 24.3246 9.37744 21.4643 9.37435C18.9754 9.37125 17.1968 10.7606 16.6895 13.2235C16.4976 14.1571 16.4963 20.6506 16.5994 21.7601Z" fill="white"/>
<path fill-rule="evenodd" clip-rule="evenodd" d="M64.287 18.6212C64.2708 17.6906 64.3609 16.9042 65.1371 16.6681C65.4903 16.5599 67.2987 16.6202 67.8142 16.6202C70.0466 16.6202 71.2817 16.09 71.2514 18.6199L64.287 18.6212ZM74.3916 22.6703C72.399 22.6442 70.3906 22.6672 68.3966 22.6672C65.9338 22.6672 64.177 23.2342 64.2944 20.8396L74.7314 20.8378C74.863 19.0147 74.8549 16.8533 74.075 15.4087C73.4564 14.2624 72.2287 13.0353 70.4801 12.9073C69.4182 12.8296 65.3413 12.7972 64.4651 12.998C62.9722 13.34 61.7955 14.5943 61.259 15.8693C60.6678 17.2767 60.7534 19.829 60.8175 21.5123C60.8883 23.4021 61.8279 24.8752 62.8034 25.6113C64.4173 26.8284 65.6965 26.5467 67.9806 26.5467C69.925 26.5467 72.0668 26.6319 73.9768 26.5331L74.3917 22.6703H74.3916Z" fill="white"/>
<path fill-rule="evenodd" clip-rule="evenodd" d="M94.4734 26.4249C94.4734 24.2593 94.4721 22.0928 94.4721 19.9272C94.4721 16.7197 94.7596 16.8619 97.8528 16.8619C101.267 16.8619 101.047 16.7507 101.047 20.177C101.047 21.1437 100.986 25.9997 101.075 26.5443L104.482 26.5461C104.653 26.0594 104.546 21.1928 104.546 20.2604C104.546 18.0499 104.712 16.5169 103.55 14.8908C102.588 13.545 101.541 12.8898 99.1841 12.8916C98.1701 12.8923 97.128 12.7717 96.25 13.1584C95.0564 13.6849 94.7869 14.309 94.4721 14.503L94.4652 6.96704L90.9964 8.25261L90.9939 26.5455L94.4734 26.4249Z" fill="white"/>
<path fill-rule="evenodd" clip-rule="evenodd" d="M89.6097 24.1757L87.1077 21.5369C86.5991 21.9732 86.7499 22.5632 85.5422 22.5943C84.666 22.6167 83.7544 22.593 82.8751 22.593C80.3401 22.593 79.8271 22.951 79.8278 20.2608C79.8291 16.4558 79.4689 16.8623 84.3728 16.8623C84.7784 16.8623 85.305 16.8331 85.6962 16.8685C86.293 16.9219 86.206 17.124 86.6196 17.3751C87.4139 16.8369 88.7527 15.5607 89.3998 15.2144C89.0923 14.1609 87.5617 13.0444 86.1235 12.9145L80.5414 12.912C78.8628 13.0555 77.8102 14.1627 77.1737 15.1374C76.277 16.5093 76.3298 17.9924 76.3298 19.8443C76.3298 21.7383 76.3137 23.0829 77.2774 24.4479C77.9817 25.4444 79.0442 26.4589 80.7915 26.5415C82.0199 26.5993 85.2472 26.6696 86.3544 26.4949C87.6107 26.2973 89.2464 25.1871 89.6097 24.1757Z" fill="white"/>
<path fill-rule="evenodd" clip-rule="evenodd" d="M44.4337 12.8721L50.0301 12.8901L50.0544 26.562L53.525 26.5638L53.5232 12.9006L59.2271 12.8852L59.2251 8.95774L44.4506 8.93665L44.4337 12.8721Z" fill="white"/>
<path fill-rule="evenodd" clip-rule="evenodd" d="M20.3163 7.43178L31.4699 7.4256C31.3035 6.99534 27.3248 2.69883 26.6032 1.78868C26.3852 1.51394 26.1238 1.20376 25.8742 0.999878C25.6195 1.16087 24.7259 2.29529 24.4533 2.59618L21.6737 5.80989C21.3924 6.10896 20.4907 7.11781 20.3163 7.43178Z" fill="white"/>
<path fill-rule="evenodd" clip-rule="evenodd" d="M36.2629 12.9308L36.2927 23.8333C36.5348 23.6823 39.5095 20.0781 39.9186 19.5759C40.2844 19.1264 40.8346 18.5689 41.1358 18.0952L38.7319 15.2202C38.4176 14.8751 36.646 12.5939 36.2604 12.4017L36.2629 12.9308Z" fill="white"/>
<path fill-rule="evenodd" clip-rule="evenodd" d="M68.4465 32.3706C71.0136 31.8019 71.4266 35.5607 69.0965 36.1251C66.4717 36.7616 66.0358 32.9039 68.4465 32.3706ZM65.5836 34.6712C65.7023 36.5006 67.146 37.4541 69.145 37.1737C70.8074 36.9407 72.0209 35.7142 71.8936 33.837C71.629 29.9338 65.3235 30.6475 65.5836 34.6712Z" fill="white"/>
<path fill-rule="evenodd" clip-rule="evenodd" d="M75.4853 35.6713C74.9897 36.7012 73.3317 36.189 73.8775 34.9103C74.3774 33.738 76.1094 34.3745 75.4853 35.6713ZM73.6415 36.7547C74.3936 37.1022 74.8928 37.5591 75.8616 36.8977C77.2377 35.959 76.9892 33.398 75.2978 33.3445C75.0643 33.3371 74.8525 33.37 74.6526 33.4439C73.5664 33.8455 74.8686 33.1897 73.0044 33.4532L72.1953 38.7936L73.3057 38.8011L73.6415 36.7547Z" fill="white"/>
<path fill-rule="evenodd" clip-rule="evenodd" d="M34.6122 32.7827C34.8642 32.6006 35.0916 32.2693 35.2635 32.0064C34.0321 30.4044 30.611 31.7091 31.6289 33.7394C32.1195 34.7184 33.3379 34.5314 33.6329 35.2393C33.8427 35.7429 33.39 36.1357 32.9422 36.1642C32.4237 36.1979 32.0834 35.8293 31.6996 35.6645C31.4731 35.8679 31.1395 36.2102 31.0066 36.5329C31.7902 36.8767 32.4884 37.5387 33.7558 37.0637C34.4512 36.8027 35.2604 35.928 34.8772 34.9024C34.4792 33.8351 33.3118 33.9171 32.9137 33.3696C32.5846 32.9157 32.9286 32.4501 33.3944 32.3762C33.929 32.291 34.2121 32.6111 34.6122 32.7827Z" fill="white"/>
<path fill-rule="evenodd" clip-rule="evenodd" d="M87.5415 34.4053C88.617 33.8253 89.3293 35.6 88.1866 36.1569C86.9788 36.7455 86.4572 34.9902 87.5415 34.4053ZM90.1825 33.4299C88.7281 33.4219 89.1703 33.3757 88.9498 33.8333C88.368 33.584 87.9078 33.0432 86.9503 33.5013C86.4149 33.7575 85.9789 34.2983 85.8399 35.0455C85.5059 36.8389 87.1812 37.8459 88.4809 36.7935L88.617 37.1384L89.6354 37.0906L90.1825 33.4299Z" fill="white"/>
<path fill-rule="evenodd" clip-rule="evenodd" d="M52.506 34.3941C53.7691 34.0411 54.0889 35.8202 53.0618 36.1596C51.7645 36.5885 51.3156 34.7267 52.506 34.3941ZM54.8297 35.7542C55.565 33.2212 51.4994 32.3757 50.7051 34.7833C50.3008 36.0092 51.2125 36.9602 52.1849 37.1597C53.4661 37.422 54.5683 36.6555 54.8297 35.7542Z" fill="white"/>
<path fill-rule="evenodd" clip-rule="evenodd" d="M37.2244 34.4215C38.4205 33.964 38.9273 35.7356 37.8977 36.1328C36.6346 36.6189 35.9645 34.9032 37.2244 34.4215ZM35.3796 35.5882C35.6056 37.9386 40.029 37.6259 39.6258 34.9206C39.2664 32.5069 35.1305 33.0005 35.3796 35.5882Z" fill="white"/>
<path fill-rule="evenodd" clip-rule="evenodd" d="M49.8946 36.1483C49.0247 36.3217 47.6635 36.4634 48.0193 35.1057C48.1198 34.7229 48.4702 34.3729 48.8732 34.2958C49.4557 34.1846 49.7133 34.4165 50.1723 34.5432L50.2878 33.6426C48.8583 33.1807 47.7628 33.2441 47.1051 34.4338C46.3948 35.7206 47.1182 36.9619 48.3676 37.1852C47.861 37.4163 47.7833 37.0925 47.6411 37.7539C47.9695 37.7241 48.2596 37.7383 48.5136 37.8297C48.5992 38.5999 47.8287 38.3543 47.1182 38.5147L46.9847 38.9946C47.7256 39.0177 48.4738 38.9834 49.0389 38.6179C50.0618 37.956 48.8694 37.2771 48.8675 37.2722C48.8583 37.2422 48.8283 37.246 48.8104 37.2304C49.8879 37.1061 49.7786 37.2174 49.8946 36.1482V36.1483Z" fill="white"/>
<path fill-rule="evenodd" clip-rule="evenodd" d="M45.0409 33.4422C44.8844 34.2988 44.957 36.0281 44.0933 36.1226C42.8711 36.2556 43.6406 34.1229 43.6742 33.4224L42.5427 33.4466C42.2321 35.2213 41.8105 37.2795 44.1002 37.2092C45.0819 37.1787 45.5334 36.7293 45.755 35.9194C45.9171 35.33 46.1271 34.0787 46.1581 33.4286L45.0409 33.4422Z" fill="white"/>
<path fill-rule="evenodd" clip-rule="evenodd" d="M42.0355 30.9417L40.9276 30.9447L39.9806 37.1335L41.0866 37.1323L42.0355 30.9417Z" fill="white"/>
<path fill-rule="evenodd" clip-rule="evenodd" d="M85.459 33.6637C81.3264 32.0189 80.6252 38.1506 84.9344 37.0602L85.0697 36.1402C84.5686 36.2478 84.0184 36.4473 83.5296 36.1813C83.2148 36.0097 83.0427 35.5634 83.1937 35.0748C83.5165 34.0298 84.3748 34.2593 85.3267 34.5328L85.459 33.6637Z" fill="white"/>
<path fill-rule="evenodd" clip-rule="evenodd" d="M79.1643 32.0911L78.0639 32.1029L77.8572 33.4076L77.4101 33.4524L77.2765 34.422C77.4796 34.5167 77.3553 34.4942 77.664 34.4929C77.6236 35.2519 77.2641 36.5082 77.3286 37.1391L78.4192 37.1149L78.834 34.5153L79.3655 34.4836L79.4891 33.425L79.0097 33.4232L79.1643 32.0911Z" fill="white"/>
<path fill-rule="evenodd" clip-rule="evenodd" d="M92.4571 34.4162C92.6205 34.2571 92.8216 34.1053 92.9347 33.8387C92.3055 33.1668 90.9109 33.1928 90.5444 34.1004C89.9688 35.5283 91.8678 35.3306 91.7927 36.2798C91.2648 36.5104 91.1438 36.3102 90.7649 36.0361L90.1868 36.5042C90.7519 37.4969 92.2509 37.4466 92.7439 36.4681C93.46 35.0471 91.1928 35.2218 91.5224 34.2509C91.9174 34.0979 92.1316 34.2838 92.4571 34.4162Z" fill="white"/>
<path fill-rule="evenodd" clip-rule="evenodd" d="M62.3821 33.918C61.8858 33.1234 60.4235 33.1844 60.0031 34.0148C59.2889 35.4253 61.3102 35.3887 61.212 36.2335C60.7003 36.6201 60.534 36.2913 60.1477 36.0463L59.6031 36.5039C60.1203 37.4008 61.5157 37.4971 62.089 36.604C63.0452 35.1138 60.2173 34.9561 60.9904 34.2487C61.3654 34.0453 61.5598 34.2703 61.8325 34.4121L62.3821 33.918Z" fill="white"/>
<path fill-rule="evenodd" clip-rule="evenodd" d="M81.3919 33.4242L80.2884 33.4273C80.1662 33.9688 79.6948 36.7169 79.742 37.1372L80.8362 37.116L81.392 33.4242H81.3919Z" fill="white"/>
<path fill-rule="evenodd" clip-rule="evenodd" d="M104.677 9.67861L104.927 9.67496C105.085 9.27704 104.97 8.15697 104.988 7.64783L105.142 7.8759C105.173 7.93566 105.236 8.10101 105.266 8.17933L105.667 9.27268C106.182 10.7478 106.591 8.16006 107.026 7.66892L107.051 9.66624L107.34 9.68353C107.559 9.29701 107.441 7.59989 107.405 7.03985L106.902 7.02368L106.112 9.04082C106.046 9.14712 106.052 9.13278 105.989 9.19816L105.183 7.0286L104.615 7.0324C104.575 7.60115 104.459 9.29195 104.677 9.67861H104.677Z" fill="white"/>
<path fill-rule="evenodd" clip-rule="evenodd" d="M52.1702 32.5514C52.5863 32.4408 52.2633 32.1188 52.8725 32.22C53.1339 32.2636 53.4177 32.4339 53.6891 32.4993C54.5014 32.6937 54.8423 32.1778 54.9485 31.489C53.8916 31.4879 54.5609 31.7514 54.0022 31.8074C53.8101 31.8266 53.2632 31.604 53.0426 31.5519C52.2577 31.3647 51.7709 31.8615 51.7883 32.5509L52.1702 32.5514Z" fill="white"/>
<path fill-rule="evenodd" clip-rule="evenodd" d="M101.723 7.18284C101.864 7.39853 101.597 7.30966 102.087 7.34763C102.236 7.35944 102.52 7.33947 102.691 7.342C102.708 7.87968 102.581 9.29756 102.762 9.67185L103.012 9.68296C103.235 9.28265 103.079 7.91146 103.095 7.34327C104.109 7.32147 104.026 7.467 104.059 7.0996C103.838 6.96279 102.716 7.02184 102.257 7.01945C101.711 7.01692 101.845 7.08779 101.723 7.18284Z" fill="white"/>
<path fill-rule="evenodd" clip-rule="evenodd" d="M81.7184 32.2557C82.2631 31.3842 80.7944 30.8502 80.4299 31.5632C80.0088 32.3856 81.2223 33.0481 81.7184 32.2557Z" fill="white"/>
<path fill-rule="evenodd" clip-rule="evenodd" d="M68.6123 30.9537C69.4675 31.0382 69.4842 30.9873 69.9375 30.5503C70.235 30.2637 70.6467 30.0138 70.8975 29.662L69.8109 29.6483C69.3538 29.6483 68.6806 30.7871 68.6123 30.9537Z" fill="white"/>
<path fill-rule="evenodd" clip-rule="evenodd" d="M59.1028 36.3817L58.3756 35.9876C58.0633 36.1877 57.9056 36.4811 57.3013 36.4041C56.8784 36.3499 56.666 36.049 56.6195 35.6271L59.3102 35.6146C59.5027 32.9591 56.3674 32.7925 55.547 34.6859C54.8353 36.3294 56.4133 37.776 58.0688 37.1487C58.6265 36.9374 58.7923 36.7092 59.1028 36.3817ZM56.6847 34.8656L58.2719 34.8774C58.1962 34.436 57.9851 34.2527 57.497 34.2626C57.0635 34.2714 56.7927 34.5281 56.6847 34.8656Z" fill="white"/>
</svg>
