<svg width="125" height="28" viewBox="0 0 125 28" fill="none" xmlns="http://www.w3.org/2000/svg">
<g clip-path="url(#clip0_302_168)">
<path d="M42.566 10.469L43.9487 8.81455C44.9089 9.60096 45.9172 10.1031 47.1366 10.1031C48.0968 10.1031 48.673 9.72482 48.673 9.10165V9.06996C48.673 8.47559 48.3081 8.17313 46.5221 7.71415C44.3808 7.16683 42.9981 6.57246 42.9981 4.45616V4.42639C42.9981 2.49445 44.5537 1.21545 46.7237 1.21545C48.2793 1.21545 49.6044 1.70708 50.6798 2.57319L49.4603 4.33421C48.5193 3.68223 47.5879 3.2847 46.6949 3.2847C45.7923 3.2847 45.3218 3.69663 45.3218 4.21419V4.24491C45.3218 4.94394 45.7827 5.17151 47.6167 5.64394C49.7772 6.21238 50.9967 6.98247 50.9967 8.84335V8.86928C50.9967 10.9885 49.3835 12.1743 47.0886 12.1743C45.4755 12.1743 43.8431 11.6116 42.566 10.469Z" fill="white"/>
<path d="M52.2642 7.453V1.372H54.6071V7.39539C54.6071 9.13337 55.4713 10.0302 56.902 10.0302C58.3327 10.0302 59.1969 9.16217 59.1969 7.47413V1.372H61.5494V7.38003C61.5494 10.6063 59.7346 12.1907 56.8732 12.1907C54.0117 12.1907 52.2642 10.5948 52.2642 7.453Z" fill="white"/>
<path d="M63.3258 1.37202H65.8512L68.655 5.87252L71.4492 1.37202H73.9745V12.0198H71.6508V5.06786L68.655 9.61733H68.5878L65.6207 5.11683V12.0198H63.3258" fill="white"/>
<path d="M76.183 12.0197H78.5259V1.37195H76.183V12.0197Z" fill="white"/>
<path d="M83.2117 3.53249H79.9662V1.37202H88.8001V3.53249H85.5546V12.0198H83.2117" fill="white"/>
<path d="M97.9222 6.72611V6.69346C97.9222 4.86907 96.5875 3.34617 94.6959 3.34617C92.8139 3.34617 91.508 4.83738 91.508 6.6637V6.69346C91.508 8.51882 92.8427 10.0417 94.7247 10.0417C96.6163 10.0417 97.9222 8.55051 97.9222 6.72611ZM89.0594 6.72611V6.69346C89.0594 3.66881 91.4408 1.18379 94.7247 1.18379C98.0182 1.18379 100.371 3.63712 100.371 6.6637V6.69346C100.371 9.72484 97.9894 12.2041 94.6959 12.2041C91.412 12.2041 89.0594 9.75461 89.0594 6.72611Z" fill="white"/>
<path d="M101.696 1.37202H104.231L107.025 5.87252L109.819 1.37202H112.354V12.0198H110.021V5.06786L107.025 9.61733H106.967L104 5.11683V12.0198H101.696" fill="white"/>
<path d="M122.542 6.72611V6.69346C122.542 4.86907 121.198 3.34617 119.316 3.34617C117.434 3.34617 116.118 4.83738 116.118 6.6637V6.69346C116.118 8.51882 117.462 10.0417 119.354 10.0417C121.236 10.0417 122.542 8.55051 122.542 6.72611ZM113.67 6.72611V6.69346C113.67 3.66881 116.06 1.18379 119.354 1.18379C122.628 1.18379 125 3.63712 125 6.6637V6.69346C125 9.72484 122.599 12.2041 119.316 12.2041C116.032 12.2041 113.67 9.75461 113.67 6.72611Z" fill="white"/>
<path d="M43.3054 15.9652H51.3328V18.0489H45.6291V20.2132H50.651V22.2959H45.6291V24.5322H51.4096V26.6158H43.3054" fill="white"/>
<path d="M53.0419 15.9652H55.3848V24.4871H60.6947V26.6158H53.0419" fill="white"/>
<path d="M62.0006 15.9652H70.0376V18.0489H64.3243V20.2132H69.3462V22.2959H64.3243V24.5322H70.1144V26.6158H62.0006" fill="white"/>
<path d="M71.1898 21.3212V21.2915C71.1898 18.262 73.4655 15.7808 76.7398 15.7808C78.7563 15.7808 79.9565 16.453 80.9455 17.4295L79.4476 19.1473C78.6314 18.4012 77.7961 17.9413 76.7302 17.9413C74.9346 17.9413 73.6384 19.4325 73.6384 21.2627V21.2915C73.6384 23.1139 74.9058 24.6388 76.7302 24.6388C77.9401 24.6388 78.6891 24.151 79.5244 23.3914L81.0224 24.8971C79.9181 26.0714 78.7083 26.8011 76.6534 26.8011C73.5135 26.8011 71.1898 24.3814 71.1898 21.3212Z" fill="white"/>
<path d="M84.9881 18.1276H81.7522V15.9652H90.5765V18.1276H87.331V26.6158H84.9881" fill="white"/>
<path d="M96.7027 21.1369C97.8453 21.1369 98.4983 20.532 98.4983 19.6351V19.6015C98.4983 18.6019 97.8069 18.0844 96.6643 18.0844H94.3405V21.1369H96.7027ZM91.988 15.9671H96.8563C98.2102 15.9671 99.2568 16.3474 99.9578 17.0474C100.563 17.636 100.88 18.4781 100.88 19.4815V19.5093C100.88 21.231 99.9482 22.3112 98.5943 22.8144L101.196 26.6158H98.4598L96.1745 23.2081H94.3405V26.6158H91.988" fill="white"/>
<path d="M102.646 26.6158H104.989V15.9652H102.646V26.6158Z" fill="white"/>
<path d="M106.487 21.3212V21.2915C106.487 18.262 108.772 15.7808 112.047 15.7808C114.054 15.7808 115.254 16.453 116.243 17.4295L114.755 19.1473C113.929 18.4012 113.093 17.9413 112.028 17.9413C110.232 17.9413 108.945 19.4325 108.945 21.2627V21.2915C108.945 23.1139 110.203 24.6388 112.028 24.6388C113.247 24.6388 113.986 24.151 114.831 23.3914L116.32 24.8971C115.225 26.0714 114.006 26.8011 111.951 26.8011C108.82 26.8011 106.487 24.3814 106.487 21.3212Z" fill="white"/>
<path d="M15.1425 13.9988L18.5128 11.4744L21.8736 13.9988L18.5128 16.5222L15.1425 13.9988ZM37.0161 12.738L30.285 7.6902L28.6046 8.95191L25.2343 6.42752L26.9147 5.16581L20.1932 0.11895L18.5128 1.37874L16.8325 0.11895L10.1014 5.16581L11.7818 6.42752L8.42103 8.95191L6.73106 7.6902L0 12.738L1.68997 13.9988L0 15.2595L6.73106 20.3083L8.42103 19.0504L11.7818 21.5729L10.1014 22.8327L16.8325 27.8815L18.5128 26.6159L20.1932 27.8815L26.9147 22.8327L25.2343 21.5729L28.6046 19.0504L30.285 20.3083L37.0161 15.2595L35.3357 13.9988" fill="white"/>
</g>
<defs>
<clipPath id="clip0_302_168">
<rect width="125" height="27.7625" fill="white" transform="translate(0 0.118774)"/>
</clipPath>
</defs>
</svg>
