<svg width="124" height="26" viewBox="0 0 124 26" fill="none" xmlns="http://www.w3.org/2000/svg">
<g id="viavi" clip-path="url(#clip0_302_214)">
<g id="Group">
<path id="Vector" d="M18.5317 17.6314L8.83491 1.23243C8.71711 1.04023 8.50631 0.910034 8.27071 0.910034H0.371909C0.037109 0.910034 -0.0930909 1.14563 0.0681091 1.43083L13.8755 24.8978C14.0243 25.1582 14.2723 25.1582 14.4273 24.8978L18.5379 18.2762C18.6495 18.0778 18.6495 17.8298 18.5317 17.6314Z" fill="white"/>
<path id="Vector_2" d="M18.9844 0.910034C18.7736 0.910034 18.6 1.08363 18.6 1.29443V7.96563C18.6 8.17643 18.7736 8.35003 18.9844 8.35003H25.6556C25.8664 8.35003 26.04 8.17643 26.04 7.96563V1.29443C26.04 1.08363 25.8664 0.910034 25.6556 0.910034H18.9844Z" fill="white"/>
<path id="Vector_3" d="M43.0156 25.09C43.2264 25.09 43.4 24.9164 43.4 24.6994V1.30063C43.4 1.08363 43.2264 0.910034 43.0156 0.910034H36.3444C36.1336 0.910034 35.96 1.08363 35.96 1.20763V24.7056C35.96 25.0094 36.1336 25.0962 36.3444 25.0962H43.0156V25.09Z" fill="white"/>
<path id="Vector_4" d="M99.1381 17.6376L89.4351 1.23243C89.3235 1.04023 89.1065 0.910034 88.8771 0.910034H80.9721C80.6435 0.910034 80.5071 1.14563 80.6745 1.43083L94.4819 24.8978C94.6307 25.1582 94.8787 25.1582 95.0337 24.8978L99.1505 18.2824C99.2559 18.084 99.2559 17.836 99.1381 17.6376Z" fill="white"/>
<path id="Vector_5" d="M99.5843 0.910034C99.3735 0.910034 99.2 1.08363 99.2 1.29443V7.96563C99.2 8.17643 99.3735 8.35003 99.5843 8.35003H106.256C106.466 8.35003 106.64 8.17643 106.64 7.96563V1.29443C106.64 1.08363 106.466 0.910034 106.256 0.910034H99.5843Z" fill="white"/>
<path id="Vector_6" d="M123.616 25.09C123.826 25.09 124 24.9164 124 24.6994V1.30063C124 1.08983 123.826 0.910034 123.616 0.910034H116.944C116.734 0.910034 116.56 1.08363 116.56 1.30063V24.7056C116.56 24.9164 116.734 25.0962 116.944 25.0962H123.616V25.09Z" fill="white"/>
<path id="Vector_7" d="M60.847 8.65999L70.4322 24.7676C70.5438 24.9598 70.7608 25.09 70.9902 25.09H78.9944C79.323 25.09 79.4594 24.8544 79.292 24.5692L65.4536 1.10839C65.3048 0.847986 65.0568 0.847986 64.9018 1.10839L60.8408 8.01519C60.7292 8.21359 60.7292 8.46159 60.847 8.65999Z" fill="white"/>
<path id="Vector_8" d="M60.3757 25.09C60.5865 25.09 60.7601 24.9164 60.7601 24.7056V18.0344C60.7601 17.8236 60.5865 17.65 60.3757 17.65H53.7045C53.4937 17.65 53.3201 17.8236 53.3201 18.0344V24.7056C53.3201 24.9164 53.4937 25.09 53.7045 25.09H60.3757Z" fill="white"/>
</g>
</g>
<defs>
<clipPath id="clip0_302_214">
<rect width="124" height="24.18" fill="white" transform="translate(0 0.910034)"/>
</clipPath>
</defs>
</svg>
